<svg id="Layer_1" xmlns="http://www.w3.org/2000/svg" viewBox="0 0 227.4 209.5"><style>.st0{fill:#a04040}</style><path class="st0" d="M53.7 18.4c16.6-6.8 34.7-9.1 54.4-6.8 19.4 2.2 38 9 54.4 19.6 16.1 10.3 29.6 24.1 39.5 40.5 9.5 15.4 14.6 33.1 14.7 51.2 0 17.9-4.8 33.8-14.4 47.7-9.6 13.9-22.7 24.3-39.4 31.1-16.6 6.8-34.7 9.1-54.3 6.8-19.4-2.2-38.1-9-54.4-19.6-16.1-10.3-29.6-24.1-39.5-40.5C5.2 133.1.1 115.4 0 97.3c0-17.9 4.8-33.8 14.4-47.7s22.7-24.3 39.3-31.2zM42 137.3c7 11.6 16.6 21.4 28 28.7 11.6 7.5 24.8 12.3 38.5 13.9 13.9 1.7 26.7.1 38.5-4.8 11.2-4.5 20.9-12.2 27.8-22.1 6.9-9.9 10.4-21.7 10.2-33.7-.1-12.8-3.7-25.4-10.4-36.3-7-11.6-16.6-21.4-28-28.7-11.6-7.6-24.8-12.4-38.5-13.9-13.9-1.6-26.7 0-38.4 4.8-11.3 4.5-20.9 12.1-27.8 22.1C35 77.2 31.4 89 31.6 101.1c.1 12.8 3.7 25.3 10.4 36.2"/><path class="st0" d="M53.7 9.4C70.3 2.6 88.4.3 108.1 2.6c19.4 2.2 38 9 54.4 19.6 16.1 10.3 29.6 24.1 39.5 40.5 9.5 15.4 14.6 33.1 14.7 51.2 0 17.9-4.8 33.8-14.4 47.7-9.6 13.9-22.7 24.3-39.4 31.1-16.6 6.8-34.7 9.1-54.3 6.8-19.4-2.2-38.1-9-54.4-19.6-16.1-10.3-29.6-24.1-39.5-40.5C5.2 124.1.1 106.4 0 88.3c0-17.9 4.8-33.8 14.4-47.7S37.1 16.3 53.7 9.4zM42 128.3c7 11.6 16.6 21.4 28 28.7 11.6 7.5 24.8 12.3 38.5 13.9 13.9 1.7 26.7.1 38.5-4.8 11.2-4.5 20.9-12.2 27.8-22.1 6.9-9.9 10.4-21.7 10.2-33.7-.1-12.8-3.7-25.4-10.4-36.3-7-11.6-16.6-21.4-28-28.7-11.6-7.6-24.8-12.4-38.5-13.9-13.9-1.6-26.7 0-38.4 4.8-11.3 4.5-20.9 12.1-27.8 22.1C35 68.2 31.4 80 31.6 92.1c.1 12.8 3.7 25.3 10.4 36.2"/><path d="M64.6 7.6C81.2.8 99.3-1.4 119 .9c19.4 2.2 38 9 54.4 19.6C189.5 30.8 203 44.6 212.8 61c9.5 15.4 14.6 33.1 14.7 51.2 0 17.8-4.8 33.8-14.5 47.8s-22.8 24.4-39.4 31.2c-16.6 6.8-34.7 9.1-54.3 6.8-19.4-2.2-38-9-54.3-19.7-16.1-10.3-29.6-24.1-39.5-40.5C16 122.4 11 104.7 10.9 86.6c0-17.9 4.8-33.8 14.4-47.7S48 14.5 64.6 7.6zM52.8 126.5c7 11.6 16.6 21.4 28 28.7 11.6 7.6 24.8 12.3 38.5 13.9 13.9 1.6 26.7 0 38.5-4.8 11.2-4.5 20.9-12.2 27.8-22.1 6.8-9.9 10.4-21.7 10.2-33.8-.1-12.8-3.6-25.3-10.4-36.2-7-11.6-16.6-21.4-28-28.7-11.6-7.6-24.8-12.3-38.5-13.9-13.9-1.6-26.7 0-38.5 4.8-11.3 4.5-21 12.1-27.9 22.1-6.8 9.9-10.4 21.7-10.2 33.8.2 12.8 3.8 25.3 10.5 36.2" fill="#f66"/></svg>