<?xml version="1.0" encoding="utf-8"?>
<!-- Generator: Adobe Illustrator 22.1.0, SVG Export Plug-In . SVG Version: 6.00 Build 0)  -->
<svg version="1.1" id="Layer_1" xmlns="http://www.w3.org/2000/svg" xmlns:xlink="http://www.w3.org/1999/xlink" x="0px" y="0px"
	 viewBox="0 0 227.4 209.5" style="enable-background:new 0 0 227.4 209.5;" xml:space="preserve">
<style type="text/css">
	.st0{fill:#A04040;}
	.st1{fill:#FF6666;}
</style>
<title>Recurso 2</title>
<path class="st0" d="M53.7,18.4c16.6-6.8,34.7-9.1,54.4-6.8c19.4,2.2,38,9,54.4,19.6c16.1,10.3,29.6,24.1,39.5,40.5
	c9.5,15.4,14.6,33.1,14.7,51.2c0,17.9-4.8,33.8-14.4,47.7c-9.6,13.9-22.7,24.3-39.4,31.1c-16.6,6.8-34.7,9.1-54.3,6.8
	c-19.4-2.2-38.1-9-54.4-19.6c-16.1-10.3-29.6-24.1-39.5-40.5C5.2,133.1,0.1,115.4,0,97.3c0-17.9,4.8-33.8,14.4-47.7
	S37.1,25.3,53.7,18.4z M42,137.3c7,11.6,16.6,21.4,28,28.7c11.6,7.5,24.8,12.3,38.5,13.9c13.9,1.7,26.7,0.1,38.5-4.8
	c11.2-4.5,20.9-12.2,27.8-22.1c6.9-9.9,10.4-21.7,10.2-33.7c-0.1-12.8-3.7-25.4-10.4-36.3c-7-11.6-16.6-21.4-28-28.7
	c-11.6-7.6-24.8-12.4-38.5-13.9c-13.9-1.6-26.7,0-38.4,4.8c-11.3,4.5-20.9,12.1-27.8,22.1C35,77.2,31.4,89,31.6,101.1
	C31.7,113.9,35.3,126.4,42,137.3"/>
<path class="st0" d="M53.7,9.4c16.6-6.8,34.7-9.1,54.4-6.8c19.4,2.2,38,9,54.4,19.6c16.1,10.3,29.6,24.1,39.5,40.5
	c9.5,15.4,14.6,33.1,14.7,51.2c0,17.9-4.8,33.8-14.4,47.7c-9.6,13.9-22.7,24.3-39.4,31.1c-16.6,6.8-34.7,9.1-54.3,6.8
	c-19.4-2.2-38.1-9-54.4-19.6c-16.1-10.3-29.6-24.1-39.5-40.5C5.2,124.1,0.1,106.4,0,88.3c0-17.9,4.8-33.8,14.4-47.7
	S37.1,16.3,53.7,9.4z M42,128.3c7,11.6,16.6,21.4,28,28.7c11.6,7.5,24.8,12.3,38.5,13.9c13.9,1.7,26.7,0.1,38.5-4.8
	c11.2-4.5,20.9-12.2,27.8-22.1c6.9-9.9,10.4-21.7,10.2-33.7c-0.1-12.8-3.7-25.4-10.4-36.3c-7-11.6-16.6-21.4-28-28.7
	c-11.6-7.6-24.8-12.4-38.5-13.9c-13.9-1.6-26.7,0-38.4,4.8c-11.3,4.5-20.9,12.1-27.8,22.1C35,68.2,31.4,80,31.6,92.1
	C31.7,104.9,35.3,117.4,42,128.3"/>
<path class="st1" d="M64.6,7.6C81.2,0.8,99.3-1.4,119,0.9c19.4,2.2,38,9,54.4,19.6c16.1,10.3,29.6,24.1,39.4,40.5
	c9.5,15.4,14.6,33.1,14.7,51.2c0,17.8-4.8,33.8-14.5,47.8s-22.8,24.4-39.4,31.2c-16.6,6.8-34.7,9.1-54.3,6.8
	c-19.4-2.2-38-9-54.3-19.7c-16.1-10.3-29.6-24.1-39.5-40.5c-9.5-15.4-14.5-33.1-14.6-51.2c0-17.9,4.8-33.8,14.4-47.7
	S48,14.5,64.6,7.6z M52.8,126.5c7,11.6,16.6,21.4,28,28.7c11.6,7.6,24.8,12.3,38.5,13.9c13.9,1.6,26.7,0,38.5-4.8
	c11.2-4.5,20.9-12.2,27.8-22.1c6.8-9.9,10.4-21.7,10.2-33.8c-0.1-12.8-3.6-25.3-10.4-36.2c-7-11.6-16.6-21.4-28-28.7
	c-11.6-7.6-24.8-12.3-38.5-13.9c-13.9-1.6-26.7,0-38.5,4.8c-11.3,4.5-21,12.1-27.9,22.1c-6.8,9.9-10.4,21.7-10.2,33.8
	C42.5,103.1,46.1,115.6,52.8,126.5"/>
</svg>
