<svg id="Layer_1" xmlns="http://www.w3.org/2000/svg" viewBox="0 0 228 209.9"><style>.st0{fill:#567d9e}</style><path class="st0" d="M28.5 21.6l72.7 64L153 13.2c10.7-10.9 22.1-15.3 27.4-11.6 3.7 2.6 4 8.8 4.2 13 .3 7.4-1.7 14.7-5.7 21L127.2 108l77.9 67.1c13.3 3.2 22.6 10.1 22.3 16.1-.3 7.5-15.5 14.1-27.9 12.4-6-.8-10.4-3.3-11.7-4.4l-74.3-64c-9 14.4-16.3 25.1-21.4 32.3-11.5 16-9.2 12.7-12.1 17.5-7.5 12.1-8.5 16.3-14.6 20.3-5.1 3.3-11.1 4.9-17.2 4.5-2.1-.2-7.1-.6-11.3-4.1l-.3-.3c-7.2-6.2-9.1-16.6-4.4-23.3l51.7-72.4L6 42.6C.1 35.5-1.7 26.4 1.7 19.3 7.3 7.5 25.9 5.2 29.9 10.2c2.1 2.5.6 7.3-1.4 11.4z"/><path class="st0" d="M178.5 0h-12.2s-4 1.1-12.2 12.1M22 6.4l-11.1 2 .8.8c3 .4 6.6-1 10.3-2.8z"/><path class="st0" d="M24.8 12.6l80.1 69 53.2-74.4c2.4-3.3 6.1-5.3 10.2-5.4 4.4-.1 8.7 1.5 12 4.5 7.4 6.4 9.4 17.1 4.5 23.9l-53.2 74.4 80.1 69c7.3 6.4 9.3 17.1 4.4 23.9-2.4 3.3-6.1 5.2-10.1 5.4-4.4.1-8.7-1.5-12-4.5l-80.1-69-53.2 74.5c-2.4 3.3-6.1 5.3-10.2 5.4-4.4.1-8.7-1.5-12-4.5-7.4-6.4-9.4-17.1-4.5-23.9l53.1-74.4L7 37.5c-7.3-6.3-9.3-17.1-4.4-23.9C5 10.3 8.8 8.3 12.8 8.2c1.8 0 3.5.2 5.2.7 2.5.7 4.8 2 6.8 3.7z"/><path d="M34 10.8l80.1 69 53.2-74.4c2.4-3.3 6.1-5.3 10.2-5.4 4.4-.1 8.7 1.5 12 4.5 7.4 6.4 9.4 17.1 4.5 23.9l-53.2 74.4 80.1 69c7.3 6.4 9.3 17.1 4.4 23.9-2.4 3.3-6.1 5.2-10.1 5.4-4.4.1-8.7-1.5-12-4.5l-80.1-69-53.2 74.5c-2.4 3.3-6.1 5.3-10.2 5.4-4.4.1-8.7-1.5-12-4.5-7.4-6.4-9.4-17.1-4.5-23.9l53.1-74.4-80.1-69C9 29.3 7 18.6 11.9 11.8 14.2 8.5 18 6.5 22 6.4c4.4-.1 8.7 1.5 12 4.4z" fill="#7cb2e8"/></svg>