<?xml version="1.0" encoding="utf-8"?>
<!-- Generator: Adobe Illustrator 22.1.0, SVG Export Plug-In . SVG Version: 6.00 Build 0)  -->
<svg version="1.1" id="Layer_1" xmlns="http://www.w3.org/2000/svg" xmlns:xlink="http://www.w3.org/1999/xlink" x="0px" y="0px"
	 viewBox="0 0 228 209.9" style="enable-background:new 0 0 228 209.9;" xml:space="preserve">
<style type="text/css">
	.st0{fill:#567D9E;}
	.st1{fill:#7CB2E8;}
</style>
<title>Recurso 1</title>
<path class="st0" d="M28.5,21.6l72.7,64L153,13.2c10.7-10.9,22.1-15.3,27.4-11.6c3.7,2.6,4,8.8,4.2,13c0.3,7.4-1.7,14.7-5.7,21
	L127.2,108l77.9,67.1c13.3,3.2,22.6,10.1,22.3,16.1c-0.3,7.5-15.5,14.1-27.9,12.4c-6-0.8-10.4-3.3-11.7-4.4l-74.3-64
	c-9,14.4-16.3,25.1-21.4,32.3c-11.5,16-9.2,12.7-12.1,17.5c-7.5,12.1-8.5,16.3-14.6,20.3c-5.1,3.3-11.1,4.9-17.2,4.5
	c-2.1-0.2-7.1-0.6-11.3-4.1l-0.3-0.3c-7.2-6.2-9.1-16.6-4.4-23.3l51.7-72.4L6,42.6c-5.9-7.1-7.7-16.2-4.3-23.3
	C7.3,7.5,25.9,5.2,29.9,10.2C32,12.7,30.5,17.5,28.5,21.6z"/>
<path class="st0" d="M178.5,0h-12.2c0,0-4,1.1-12.2,12.1"/>
<path class="st0" d="M22,6.4l-11.1,2l0.8,0.8C14.7,9.6,18.3,8.2,22,6.4z"/>
<path class="st0" d="M24.8,12.6l80.1,69l53.2-74.4c2.4-3.3,6.1-5.3,10.2-5.4c4.4-0.1,8.7,1.5,12,4.5c7.4,6.4,9.4,17.1,4.5,23.9
	l-53.2,74.4l80.1,69c7.3,6.4,9.3,17.1,4.4,23.9c-2.4,3.3-6.1,5.2-10.1,5.4c-4.4,0.1-8.7-1.5-12-4.5l-80.1-69l-53.2,74.5
	c-2.4,3.3-6.1,5.3-10.2,5.4c-4.4,0.1-8.7-1.5-12-4.5c-7.4-6.4-9.4-17.1-4.5-23.9l53.1-74.4l-80.1-69c-7.3-6.3-9.3-17.1-4.4-23.9
	C5,10.3,8.8,8.3,12.8,8.2c1.8,0,3.5,0.2,5.2,0.7C20.5,9.6,22.8,10.9,24.8,12.6z"/>
<path class="st1" d="M34,10.8l80.1,69l53.2-74.4c2.4-3.3,6.1-5.3,10.2-5.4c4.4-0.1,8.7,1.5,12,4.5c7.4,6.4,9.4,17.1,4.5,23.9
	l-53.2,74.4l80.1,69c7.3,6.4,9.3,17.1,4.4,23.9c-2.4,3.3-6.1,5.2-10.1,5.4c-4.4,0.1-8.7-1.5-12-4.5l-80.1-69l-53.2,74.5
	c-2.4,3.3-6.1,5.3-10.2,5.4c-4.4,0.1-8.7-1.5-12-4.5c-7.4-6.4-9.4-17.1-4.5-23.9l53.1-74.4l-80.1-69C9,29.3,7,18.6,11.9,11.8
	C14.2,8.5,18,6.5,22,6.4C26.4,6.3,30.7,7.9,34,10.8z"/>
</svg>
